HIERARCHY
ROOT Hips
{
	OFFSET 0.000000 71.427986 0.000000
	CHANNELS 6 Xposition Yposition Zposition Xrotation Yrotation Zrotation
	JOINT Pelvis
	{
		OFFSET 0.000000 0.000000 0.000000
		CHANNELS 3 Xrotation Yrotation Zrotation
		JOINT LeftUpLeg
		{
			OFFSET 6.797100 -2.508499 -1.318700
			CHANNELS 3 Xrotation Yrotation Zrotation
			JOINT LeftLeg
			{
				OFFSET 0.069008 -29.241863 0.690200
				CHANNELS 3 Xrotation Yrotation Zrotation
				JOINT LeftFoot
				{
					OFFSET -0.069008 -29.568123 -0.266800
					CHANNELS 3 Xrotation Yrotation Zrotation
					JOINT LeftToeBase
					{
						OFFSET 3.145500 -8.631000 16.059900
						CHANNELS 3 Xrotation Yrotation Zrotation
						End Site
						{
							OFFSET 0.000000 18.501587 0.000000
						}
					}
				}
			}
			JOINT Left_ShortSleeve
			{
				OFFSET 0.265923 -10.480953 1.153800
				CHANNELS 3 Xrotation Yrotation Zrotation
				End Site
				{
					OFFSET 1.725763 19.823879 0.000000
				}
			}
		}
		JOINT RightUpLeg
		{
			OFFSET -6.797100 -2.508499 -1.318700
			CHANNELS 3 Xrotation Yrotation Zrotation
			JOINT RightLeg
			{
				OFFSET -0.082453 -29.241932 0.688000
				CHANNELS 3 Xrotation Yrotation Zrotation
				JOINT RightFoot
				{
					OFFSET 0.082453 -29.568058 -0.264600
					CHANNELS 3 Xrotation Yrotation Zrotation
					JOINT RightToeBase
					{
						OFFSET -3.115300 -8.682800 16.113400
						CHANNELS 3 Xrotation Yrotation Zrotation
						End Site
						{
							OFFSET 0.000000 18.567114 0.000000
						}
					}
				}
			}
			JOINT Right_ShortSleeve
			{
				OFFSET -0.265923 -10.480953 1.153800
				CHANNELS 3 Xrotation Yrotation Zrotation
				End Site
				{
					OFFSET -1.725766 19.823910 0.000000
				}
			}
		}
	}
	JOINT Spine
	{
		OFFSET 0.000000 13.368103 0.470500
		CHANNELS 3 Xrotation Yrotation Zrotation
		JOINT Spine1
		{
			OFFSET 0.147000 13.837402 0.538800
			CHANNELS 3 Xrotation Yrotation Zrotation
			JOINT Spine2
			{
				OFFSET 0.168000 16.242897 -1.435500
				CHANNELS 3 Xrotation Yrotation Zrotation
				JOINT Neck
				{
					OFFSET 0.217200 18.631500 -1.679100
					CHANNELS 3 Xrotation Yrotation Zrotation
					JOINT Head
					{
						OFFSET 0.000000 6.599396 1.385900
						CHANNELS 3 Xrotation Yrotation Zrotation
						JOINT Hat
						{
							OFFSET -0.532200 27.220596 -10.096100
							CHANNELS 3 Xrotation Yrotation Zrotation
							End Site
							{
								OFFSET 0.000000 22.029861 0.000000
							}
						}
						JOINT HairD
						{
							OFFSET -10.777400 17.437393 -1.325900
							CHANNELS 3 Xrotation Yrotation Zrotation
							JOINT HairD1
							{
								OFFSET -3.290299 -11.051193 1.062200
								CHANNELS 3 Xrotation Yrotation Zrotation
								End Site
								{
									OFFSET 0.000000 11.579437 0.000000
								}
							}
						}
						JOINT HairB
						{
							OFFSET -10.777400 17.437393 1.467900
							CHANNELS 3 Xrotation Yrotation Zrotation
							JOINT HairB1
							{
								OFFSET -1.561200 -12.956299 3.590200
								CHANNELS 3 Xrotation Yrotation Zrotation
								End Site
								{
									OFFSET 0.000000 13.534866 0.000000
								}
							}
						}
						JOINT HairA
						{
							OFFSET 9.713100 17.437393 1.467900
							CHANNELS 3 Xrotation Yrotation Zrotation
							JOINT HairA1
							{
								OFFSET 1.561200 -12.956299 3.590200
								CHANNELS 3 Xrotation Yrotation Zrotation
								End Site
								{
									OFFSET 0.000000 13.534866 0.000000
								}
							}
						}
						JOINT HairC
						{
							OFFSET 9.713100 17.437393 -1.325900
							CHANNELS 3 Xrotation Yrotation Zrotation
							JOINT HairC1
							{
								OFFSET 3.290300 -11.051193 1.062200
								CHANNELS 3 Xrotation Yrotation Zrotation
								End Site
								{
									OFFSET 0.000000 11.579437 0.000000
								}
							}
						}
					}
				}
				JOINT LeftShoulder
				{
					OFFSET 5.101800 15.108002 -2.763700
					CHANNELS 3 Xrotation Yrotation Zrotation
					JOINT LeftArm
					{
						OFFSET 9.825497 2.506317 -1.597400
						CHANNELS 3 Xrotation Yrotation Zrotation
						JOINT LeftForeArm
						{
							OFFSET 21.966244 0.000000 0.000000
							CHANNELS 3 Xrotation Yrotation Zrotation
							JOINT LeftHand
							{
								OFFSET 33.879036 0.000000 0.000000
								CHANNELS 3 Xrotation Yrotation Zrotation
								JOINT LeftHandThumb1
								{
									OFFSET 6.715286 -2.359680 3.363841
									CHANNELS 3 Xrotation Yrotation Zrotation
									JOINT LeftHandThumb2
									{
										OFFSET 2.507072 -1.447464 1.447461
										CHANNELS 3 Xrotation Yrotation Zrotation
										JOINT LeftHandThumb3
										{
											OFFSET 2.898338 -1.673355 1.673357
											CHANNELS 3 Xrotation Yrotation Zrotation
											End Site
											{
												OFFSET -0.295959 3.727692 -0.131651
											}
										}
									}
								}
								JOINT LeftHandIndex1
								{
									OFFSET 14.190811 -0.254547 3.840278
									CHANNELS 3 Xrotation Yrotation Zrotation
									JOINT LeftHandIndex2
									{
										OFFSET 3.551727 0.000000 -0.000000
										CHANNELS 3 Xrotation Yrotation Zrotation
										JOINT LeftHandIndex3
										{
											OFFSET 2.894196 0.000000 0.000000
											CHANNELS 3 Xrotation Yrotation Zrotation
											End Site
											{
												OFFSET -1.000603 2.690872 0.366626
											}
										}
									}
								}
								JOINT LeftHandMiddle1
								{
									OFFSET 13.776489 0.000000 0.000000
									CHANNELS 3 Xrotation Yrotation Zrotation
									JOINT LeftHandMiddle2
									{
										OFFSET 3.438232 0.000000 0.000000
										CHANNELS 3 Xrotation Yrotation Zrotation
										JOINT LeftHandMiddle3
										{
											OFFSET 3.691551 0.000000 0.000000
											CHANNELS 3 Xrotation Yrotation Zrotation
											End Site
											{
												OFFSET -1.082298 3.499527 0.457670
											}
										}
									}
								}
								JOINT LeftHandRing1
								{
									OFFSET 13.966164 -0.268127 -3.067488
									CHANNELS 3 Xrotation Yrotation Zrotation
									JOINT LeftHandRing2
									{
										OFFSET 3.162567 0.000000 0.000000
										CHANNELS 3 Xrotation Yrotation Zrotation
										JOINT LeftHandRing3
										{
											OFFSET 3.324348 0.000000 0.000000
											CHANNELS 3 Xrotation Yrotation Zrotation
											End Site
											{
												OFFSET -0.861900 3.184998 0.405154
											}
										}
									}
								}
								JOINT LeftHandPinky1
								{
									OFFSET 13.131393 -0.168503 -5.746925
									CHANNELS 3 Xrotation Yrotation Zrotation
									JOINT LeftHandPinky2
									{
										OFFSET 2.849182 0.000000 0.000000
										CHANNELS 3 Xrotation Yrotation Zrotation
										JOINT LeftHandPinky3
										{
											OFFSET 2.805038 0.000000 0.000000
											CHANNELS 3 Xrotation Yrotation Zrotation
											End Site
											{
												OFFSET -0.882500 2.642609 0.325652
											}
										}
									}
								}
							}
							JOINT Left_Sleeve
							{
								OFFSET 6.592125 -0.646545 0.805568
								CHANNELS 3 Xrotation Yrotation Zrotation
								End Site
								{
									OFFSET -0.000179 20.275787 -0.000000
								}
							}
						}
					}
				}
				JOINT RightShoulder
				{
					OFFSET -5.731700 15.108002 -2.763700
					CHANNELS 3 Xrotation Yrotation Zrotation
					JOINT RightArm
					{
						OFFSET -9.825497 2.506317 -1.597400
						CHANNELS 3 Xrotation Yrotation Zrotation
						JOINT RightForeArm
						{
							OFFSET -21.966242 0.000000 0.000000
							CHANNELS 3 Xrotation Yrotation Zrotation
							JOINT RightHand
							{
								OFFSET -33.879032 0.000000 0.000000
								CHANNELS 3 Xrotation Yrotation Zrotation
								JOINT RightHandThumb1
								{
									OFFSET -6.715286 -2.359680 3.363841
									CHANNELS 3 Xrotation Yrotation Zrotation
									JOINT RightHandThumb2
									{
										OFFSET -2.507072 -1.447464 1.447461
										CHANNELS 3 Xrotation Yrotation Zrotation
										JOINT RightHandThumb3
										{
											OFFSET -2.898338 -1.673355 1.673357
											CHANNELS 3 Xrotation Yrotation Zrotation
											End Site
											{
												OFFSET 0.295959 3.727692 -0.131651
											}
										}
									}
								}
								JOINT RightHandIndex1
								{
									OFFSET -14.190811 -0.254547 3.840278
									CHANNELS 3 Xrotation Yrotation Zrotation
									JOINT RightHandIndex2
									{
										OFFSET -3.551727 0.000000 -0.000000
										CHANNELS 3 Xrotation Yrotation Zrotation
										JOINT RightHandIndex3
										{
											OFFSET -2.894196 0.000000 0.000000
											CHANNELS 3 Xrotation Yrotation Zrotation
											End Site
											{
												OFFSET 1.000603 2.690872 0.366626
											}
										}
									}
								}
								JOINT RightHandMiddle1
								{
									OFFSET -13.776489 0.000000 0.000000
									CHANNELS 3 Xrotation Yrotation Zrotation
									JOINT RightHandMiddle2
									{
										OFFSET -3.438232 0.000000 0.000000
										CHANNELS 3 Xrotation Yrotation Zrotation
										JOINT RightHandMiddle3
										{
											OFFSET -3.691551 0.000000 0.000000
											CHANNELS 3 Xrotation Yrotation Zrotation
											End Site
											{
												OFFSET 1.082298 3.499527 0.457670
											}
										}
									}
								}
								JOINT RightHandRing1
								{
									OFFSET -13.966164 -0.268127 -3.067488
									CHANNELS 3 Xrotation Yrotation Zrotation
									JOINT RightHandRing2
									{
										OFFSET -3.162567 0.000000 0.000000
										CHANNELS 3 Xrotation Yrotation Zrotation
										JOINT RightHandRing3
										{
											OFFSET -3.324348 0.000000 0.000000
											CHANNELS 3 Xrotation Yrotation Zrotation
											End Site
											{
												OFFSET 0.861900 3.184998 0.405154
											}
										}
									}
								}
								JOINT RightHandPinky1
								{
									OFFSET -13.131393 -0.168503 -5.746925
									CHANNELS 3 Xrotation Yrotation Zrotation
									JOINT RightHandPinky2
									{
										OFFSET -2.849182 0.000000 0.000000
										CHANNELS 3 Xrotation Yrotation Zrotation
										JOINT RightHandPinky3
										{
											OFFSET -2.805038 0.000000 0.000000
											CHANNELS 3 Xrotation Yrotation Zrotation
											End Site
											{
												OFFSET 0.882500 2.642609 0.325652
											}
										}
									}
								}
							}
							JOINT Right_Sleeve
							{
								OFFSET -6.592125 -0.646545 0.805568
								CHANNELS 3 Xrotation Yrotation Zrotation
								End Site
								{
									OFFSET 0.000179 20.275787 -0.000000
								}
							}
						}
					}
				}
				JOINT Bind_Right_JacketString
				{
					OFFSET -3.534800 11.969597 7.200700
					CHANNELS 3 Xrotation Yrotation Zrotation
					JOINT Bind_Right_JacketString1
					{
						OFFSET -0.319900 -6.102600 2.794100
						CHANNELS 3 Xrotation Yrotation Zrotation
						End Site
						{
							OFFSET 0.000000 6.719452 0.000000
						}
					}
				}
				JOINT Bind_Left_JacketString
				{
					OFFSET 2.904800 11.969597 7.200700
					CHANNELS 3 Xrotation Yrotation Zrotation
					JOINT Bind_Left_JacketString1
					{
						OFFSET 0.364800 -5.904503 3.186800
						CHANNELS 3 Xrotation Yrotation Zrotation
						End Site
						{
							OFFSET 0.000000 6.719513 0.000000
						}
					}
				}
				JOINT HairE
				{
					OFFSET 5.915200 17.612701 -11.592200
					CHANNELS 3 Xrotation Yrotation Zrotation
					JOINT HairE1
					{
						OFFSET 0.289200 -7.171898 -1.284500
						CHANNELS 3 Xrotation Yrotation Zrotation
						End Site
						{
							OFFSET 0.000000 7.291756 0.000000
						}
					}
				}
				JOINT HairF
				{
					OFFSET -0.864800 17.612701 -11.592200
					CHANNELS 3 Xrotation Yrotation Zrotation
					JOINT HairF1
					{
						OFFSET 0.000000 -14.087097 -2.127501
						CHANNELS 3 Xrotation Yrotation Zrotation
						End Site
						{
							OFFSET 0.000000 14.246841 0.000000
						}
					}
				}
				JOINT HairG
				{
					OFFSET -8.087700 17.612701 -11.592200
					CHANNELS 3 Xrotation Yrotation Zrotation
					JOINT HairG1
					{
						OFFSET -0.293600 -6.081398 -0.910100
						CHANNELS 3 Xrotation Yrotation Zrotation
						End Site
						{
							OFFSET 0.000000 6.156120 0.000000
						}
					}
				}
			}
		}
	}
	JOINT Pouch
	{
		OFFSET 0.000000 4.394501 10.847300
		CHANNELS 3 Xrotation Yrotation Zrotation
		End Site
		{
			OFFSET 0.000000 21.880577 0.000000
		}
	}
	JOINT Bag
	{
		OFFSET -13.229000 4.813004 -0.593300
		CHANNELS 3 Xrotation Yrotation Zrotation
		End Site
		{
			OFFSET 0.000000 21.880577 0.000000
		}
	}
	JOINT OccupyGuyFacialAnim_Joint
	{
		OFFSET 1.000000 -70.206398 -1.655000
		CHANNELS 3 Xrotation Yrotation Zrotation
		End Site
		{
			OFFSET 0.000000 21.880577 0.000000
		}
	}
}
MOTION
Frames: 4
Frame Time: 0.033333
-0.335734 70.398643 1.256660 -3.708384 -11.538702 0.962976 -0.000000 -0.000000 -0.000000 -9.018511 10.953514 4.434850 11.737121 9.931000 2.262212 0.454183 0.638072 -5.629392 0.000000 -0.000001 -0.000000 -0.000001 0.000000 -0.000000 -1.262297 -13.983165 -3.943498 20.376802 -9.845859 -3.001384 -15.267291 -3.754059 5.296245 -0.000000 -0.000000 0.000000 0.000000 -0.000002 -0.000000 3.476184 -1.230915 -0.977490 1.426030 -0.344986 -0.414995 1.425650 -0.371859 -0.203911 1.054152 1.150330 0.551903 -1.173498 10.771522 -2.591588 -0.000000 -0.000000 -0.000000 -0.000000 -0.000000 -0.000000 -0.000000 -0.000000 -0.000000 -0.000000 -0.000000 -0.000000 -0.000000 -0.000000 -0.000000 -0.000000 -0.000000 -0.000000 -0.000000 -0.000000 -0.000000 -0.000000 -0.000000 -0.000000 -0.000000 -0.000000 -0.000000 -0.392922 -12.028498 -22.689067 6.969799 -20.252687 -46.541653 -0.000007 -47.163112 -0.000009 -150.575796 11.457987 -10.920024 29.630607 -31.778671 18.446550 0.733748 0.134337 -1.606348 0.000000 -0.000000 -0.000004 -0.464351 5.250202 -57.676467 3.960191 5.538091 -71.114946 -0.000001 -0.000003 0.000001 2.092191 7.029026 -64.990794 2.632237 4.888699 -56.578616 0.000004 0.000002 -0.000001 4.692795 8.158173 -68.255795 2.733761 4.953954 -57.761913 -0.000000 0.000001 -0.000002 3.068233 7.724256 -77.841890 2.140430 4.527119 -50.591833 -0.000004 0.000001 0.000001 0.000002 -0.000001 -0.000004 1.766988 12.885555 7.302056 21.924832 38.252519 29.065716 -0.000921 86.577846 0.000863 -29.531641 -21.360411 18.562984 62.190607 24.602490 -14.926398 12.648680 -30.752951 -4.057476 0.000001 0.000001 0.000001 -1.379237 0.831195 20.129947 1.144892 -3.060201 41.016061 -0.000001 0.000001 -0.000001 0.530309 -4.734895 46.318924 5.582920 -4.564420 101.477951 -0.000001 0.000000 -0.000001 5.199407 -8.477876 52.869311 5.502509 -4.579975 100.469166 0.000001 -0.000001 0.000002 5.577648 -8.355140 57.344301 2.509283 -4.133241 62.509611 0.000000 0.000001 0.000002 0.000002 -0.000001 0.000001 -0.000000 -0.000000 0.000000 0.000000 -0.000000 0.000000 -0.000000 -0.000000 0.000000 -0.000000 -0.000000 0.000000 -0.000000 -0.000000 0.000000 0.000000 -0.000000 -0.000000 -0.000000 -0.000000 0.000000 -0.000000 -0.000000 0.000000 -0.000000 -0.000000 0.000000 0.000000 -0.000000 -0.000000 -0.000000 -0.000000 -0.000000 -0.000000 -0.000000 -0.000000 -0.000000 -0.000000 -0.000000 
-0.316697 70.402618 1.268551 -3.694026 -11.538841 0.965700 0.000000 0.000001 0.000000 -9.006092 10.953099 4.413141 11.709648 9.870434 2.261337 0.457994 0.706991 -5.613028 -0.000000 0.000001 0.000000 0.000001 0.000000 -0.000000 -1.255967 -13.983110 -3.960367 20.338630 -9.845010 -3.001593 -15.244226 -3.755276 5.304435 -0.000000 -0.000002 -0.000000 -0.000001 -0.000000 -0.000000 3.447420 -1.230899 -0.977340 1.397318 -0.344985 -0.380428 1.447844 -0.371865 -0.203911 1.054153 1.150334 0.551903 -1.173498 10.771519 -2.603763 0.000000 0.000000 0.000000 0.000000 0.000000 0.000000 0.000000 0.000000 0.000000 0.000000 0.000000 0.000000 -0.000000 -0.000000 -0.000000 0.000000 0.000000 0.000000 -0.000000 -0.000000 -0.000000 0.000000 0.000000 0.000000 0.000000 0.000000 0.000000 -0.392922 -12.028499 -22.689064 7.013805 -20.246525 -46.546284 -0.000008 -47.229641 -0.000012 -150.594702 11.400544 -10.926545 29.630600 -31.778674 18.446553 0.733746 0.134337 -1.606354 0.000000 0.000001 -0.000003 -0.464352 5.250204 -57.676467 3.960193 5.538090 -71.114946 -0.000000 0.000003 -0.000001 2.092189 7.029030 -64.990800 2.632238 4.888702 -56.578616 0.000003 -0.000000 0.000002 4.692792 8.158173 -68.255795 2.733765 4.953954 -57.761913 0.000002 -0.000003 -0.000003 3.068232 7.724259 -77.841890 2.140429 4.527122 -50.591833 0.000001 -0.000001 0.000003 -0.000001 -0.000002 0.000001 1.766988 12.885556 7.302057 21.919972 38.207423 29.084465 -0.001378 86.609763 0.001357 -29.499116 -21.376368 18.611982 62.190607 24.602493 -14.926397 12.648683 -30.752947 -4.057478 0.000001 0.000000 -0.000001 -1.379238 0.831199 20.129954 1.144891 -3.060202 41.016061 -0.000000 -0.000001 0.000002 0.530312 -4.734895 46.318931 5.582921 -4.564426 101.477951 0.000000 0.000003 0.000003 5.199404 -8.477875 52.869311 5.502515 -4.579977 100.469166 -0.000000 -0.000003 0.000001 5.577645 -8.355138 57.344308 2.509285 -4.133238 62.509611 0.000002 0.000003 -0.000003 -0.000002 0.000004 0.000003 -0.000000 -0.000000 0.000000 0.000000 -0.000000 0.000000 -0.000000 -0.000000 0.000000 -0.000000 -0.000000 0.000000 -0.000000 -0.000000 0.000000 0.000000 -0.000000 0.000000 -0.000000 -0.000000 0.000000 -0.000000 -0.000000 0.000000 -0.000000 -0.000000 0.000000 0.000000 -0.000000 0.000000 0.000000 0.000001 0.000000 0.000000 0.000001 0.000000 0.000000 0.000001 0.000000 
-0.298272 70.407234 1.280217 -3.679861 -11.538985 0.968458 -0.000000 0.000000 -0.000000 -8.986045 10.952610 4.389807 11.667440 9.805665 2.259444 0.470883 0.778785 -5.594459 -0.000000 0.000001 0.000000 0.000000 -0.000000 -0.000000 -1.245830 -13.983032 -3.976075 20.293098 -9.844165 -3.001755 -15.217494 -3.756334 5.312159 -0.000000 -0.000001 0.000000 -0.000000 -0.000002 -0.000000 3.417226 -1.230868 -0.977261 1.367580 -0.341563 -0.344434 1.471026 -0.371861 -0.203911 1.054152 1.150336 0.551903 -1.173497 10.771517 -2.615939 0.000000 -0.000000 -0.000000 0.000000 -0.000000 -0.000000 0.000000 -0.000000 -0.000000 0.000000 -0.000000 0.000000 0.000000 0.000000 0.000000 0.000000 -0.000000 0.000000 0.000000 0.000000 0.000000 0.000000 -0.000000 -0.000000 0.000000 -0.000000 -0.000000 -0.392922 -12.028498 -22.689072 7.061061 -20.237888 -46.550157 0.000002 -47.303103 0.000008 -150.614236 11.338800 -10.931521 29.630600 -31.778671 18.446551 0.733746 0.134338 -1.606354 -0.000001 0.000001 0.000002 -0.464353 5.250202 -57.676467 3.960203 5.538088 -71.114939 0.000001 -0.000003 -0.000004 2.092188 7.029028 -64.990800 2.632241 4.888704 -56.578620 -0.000000 0.000000 0.000001 4.692790 8.158169 -68.255795 2.733757 4.953949 -57.761913 0.000001 0.000000 0.000002 3.068233 7.724256 -77.841897 2.140432 4.527122 -50.591833 0.000000 0.000001 0.000001 0.000002 -0.000001 -0.000000 1.766988 12.885555 7.302055 21.914799 38.160926 29.103921 -0.000685 86.643572 0.000782 -29.466232 -21.393525 18.662884 62.190600 24.602493 -14.926400 12.648677 -30.752954 -4.057478 0.000001 0.000000 -0.000001 -1.379239 0.831195 20.129949 1.144894 -3.060202 41.016058 -0.000000 -0.000002 -0.000002 0.530309 -4.734899 46.318928 5.582922 -4.564425 101.477951 -0.000002 -0.000002 -0.000001 5.199406 -8.477877 52.869308 5.502511 -4.579977 100.469166 -0.000001 -0.000004 -0.000003 5.577649 -8.355141 57.344301 2.509286 -4.133240 62.509618 0.000004 0.000001 0.000002 -0.000001 -0.000003 -0.000003 0.000000 0.000001 -0.000000 0.000000 0.000001 -0.000000 0.000000 0.000001 -0.000000 0.000000 0.000001 -0.000000 0.000000 0.000001 -0.000000 0.000000 0.000001 -0.000000 0.000000 0.000001 -0.000000 0.000000 0.000001 -0.000000 0.000000 0.000001 -0.000000 0.000000 0.000001 -0.000000 -0.000000 0.000000 -0.000000 -0.000000 0.000000 -0.000000 -0.000000 0.000000 -0.000000 
-0.280411 70.412399 1.291683 -3.665873 -11.539132 0.971279 -0.000000 -0.000001 0.000000 -8.961324 10.951851 4.365619 11.615862 9.737160 2.257494 0.489217 0.852827 -5.575298 -0.000000 0.000001 -0.000000 0.000000 0.000000 -0.000000 -1.231937 -13.983059 -3.990626 20.240881 -9.843647 -3.001852 -15.187701 -3.757130 5.320305 -0.000000 0.000000 -0.000000 -0.000000 -0.000001 -0.000000 3.385706 -1.230843 -0.977281 1.336902 -0.338028 -0.307298 1.495144 -0.371865 -0.203911 1.054151 1.150337 0.551902 -1.163068 10.771627 -2.628324 0.000000 0.000000 0.000000 0.000000 0.000000 0.000000 0.000000 0.000000 0.000000 0.000000 0.000000 0.000000 0.000000 0.000000 0.000000 0.000000 0.000000 0.000000 0.000000 0.000000 0.000000 0.000000 0.000000 0.000000 0.000000 0.000000 0.000000 -0.392923 -12.028501 -22.689076 7.110726 -20.226362 -46.553996 0.000002 -47.382904 0.000004 -150.633634 11.273272 -10.934785 29.630597 -31.778667 18.446550 0.733748 0.134335 -1.606351 0.000000 -0.000000 -0.000004 -0.464352 5.250205 -57.676467 3.960196 5.538087 -71.114946 0.000003 0.000003 -0.000003 2.092188 7.029031 -64.990794 2.632236 4.888698 -56.578616 0.000000 -0.000004 0.000000 4.692789 8.158174 -68.255795 2.733764 4.953950 -57.761906 0.000001 0.000002 0.000002 3.068229 7.724261 -77.841890 2.140431 4.527122 -50.591833 -0.000001 0.000000 0.000003 0.000000 -0.000003 -0.000001 1.766988 12.885554 7.302057 21.909372 38.113094 29.123957 0.000199 86.679246 -0.000276 -29.433112 -21.411808 18.715545 62.190607 24.602490 -14.926402 12.648681 -30.752947 -4.057477 0.000001 0.000002 0.000003 -1.379236 0.831198 20.129951 1.144886 -3.060202 41.016054 0.000001 0.000000 0.000000 0.530309 -4.734895 46.318928 5.582924 -4.564422 101.477951 -0.000003 0.000000 -0.000004 5.199406 -8.477873 52.869305 5.502516 -4.579974 100.469166 -0.000003 -0.000002 -0.000001 5.577649 -8.355136 57.344308 2.509284 -4.133236 62.509611 -0.000000 0.000001 -0.000001 -0.000001 -0.000005 -0.000004 0.000000 0.000000 -0.000000 0.000000 0.000000 -0.000000 0.000000 0.000000 -0.000000 0.000000 0.000000 -0.000000 0.000000 0.000000 -0.000000 0.000000 0.000000 -0.000000 0.000000 0.000000 -0.000000 0.000000 0.000000 -0.000000 0.000000 0.000000 -0.000000 0.000000 0.000000 -0.000000 -0.000000 -0.000001 0.000000 -0.000000 -0.000001 0.000000 -0.000000 -0.000001 0.000000 
